<?xml version="1.0" encoding="utf-8"?>
<!-- Generator: Adobe Illustrator 26.3.1, SVG Export Plug-In . SVG Version: 6.00 Build 0)  -->
<svg version="1.1" id="Layer_1" xmlns="http://www.w3.org/2000/svg" xmlns:xlink="http://www.w3.org/1999/xlink" x="0px" y="0px"
	 viewBox="0 0 100 120" style="enable-background:new 0 0 100 120;" xml:space="preserve">
<style type="text/css">
	.st0{fill:#686CFF;}
</style>
<g>
	<circle class="st0" cx="95.6" cy="116.5" r="3.4"/>
	<circle class="st0" cx="95.6" cy="93.9" r="3.4"/>
	<circle class="st0" cx="95.6" cy="71.3" r="3.4"/>
	<path class="st0" d="M92.2,48.7c0,1.9,1.5,3.4,3.4,3.4s3.4-1.5,3.4-3.4s-1.5-3.4-3.4-3.4S92.2,46.8,92.2,48.7z"/>
	<path class="st0" d="M92.2,26.1c0,1.9,1.5,3.4,3.4,3.4S99,28,99,26.1s-1.5-3.4-3.4-3.4S92.2,24.2,92.2,26.1z"/>
	<circle class="st0" cx="95.6" cy="3.5" r="3.4"/>
	<circle class="st0" cx="77.4" cy="116.5" r="3.4"/>
	<circle class="st0" cx="77.4" cy="93.9" r="3.4"/>
	<circle class="st0" cx="77.4" cy="71.3" r="3.4"/>
	<path class="st0" d="M74,48.7c0,1.9,1.5,3.4,3.4,3.4s3.4-1.5,3.4-3.4s-1.5-3.4-3.4-3.4S74,46.8,74,48.7z"/>
	<path class="st0" d="M74,26.1c0,1.9,1.5,3.4,3.4,3.4s3.4-1.5,3.4-3.4s-1.5-3.4-3.4-3.4S74,24.2,74,26.1z"/>
	<circle class="st0" cx="77.4" cy="3.5" r="3.4"/>
	<path class="st0" d="M55.7,116.5c0,1.9,1.5,3.4,3.4,3.4s3.4-1.5,3.4-3.4s-1.5-3.4-3.4-3.4C57.3,113.2,55.7,114.7,55.7,116.5z"/>
	<path class="st0" d="M55.7,93.9c0,1.9,1.5,3.4,3.4,3.4s3.4-1.5,3.4-3.4s-1.5-3.4-3.4-3.4C57.3,90.5,55.7,92.1,55.7,93.9z"/>
	<path class="st0" d="M55.7,71.3c0,1.9,1.5,3.4,3.4,3.4s3.4-1.5,3.4-3.4s-1.5-3.4-3.4-3.4C57.3,67.9,55.7,69.4,55.7,71.3z"/>
	<path class="st0" d="M55.7,48.7c0,1.9,1.5,3.4,3.4,3.4s3.4-1.5,3.4-3.4s-1.5-3.4-3.4-3.4C57.3,45.3,55.7,46.8,55.7,48.7z"/>
	<path class="st0" d="M55.7,26.1c0,1.9,1.5,3.4,3.4,3.4s3.4-1.5,3.4-3.4s-1.5-3.4-3.4-3.4C57.3,22.7,55.7,24.2,55.7,26.1z"/>
	<path class="st0" d="M55.7,3.5c0,1.9,1.5,3.4,3.4,3.4s3.4-1.5,3.4-3.4S61,0.1,59.1,0.1C57.3,0.1,55.7,1.6,55.7,3.5z"/>
	<circle class="st0" cx="40.9" cy="116.5" r="3.4"/>
	<circle class="st0" cx="40.9" cy="93.9" r="3.4"/>
	<circle class="st0" cx="40.9" cy="71.3" r="3.4"/>
	<path class="st0" d="M37.5,48.7c0,1.9,1.5,3.4,3.4,3.4s3.4-1.5,3.4-3.4s-1.5-3.4-3.4-3.4S37.5,46.8,37.5,48.7z"/>
	<path class="st0" d="M37.5,26.1c0,1.9,1.5,3.4,3.4,3.4s3.4-1.5,3.4-3.4s-1.5-3.4-3.4-3.4S37.5,24.2,37.5,26.1z"/>
	<circle class="st0" cx="40.9" cy="3.5" r="3.4"/>
	<circle class="st0" cx="22.6" cy="116.5" r="3.4"/>
	<circle class="st0" cx="22.6" cy="93.9" r="3.4"/>
	<circle class="st0" cx="22.6" cy="71.3" r="3.4"/>
	<path class="st0" d="M19.2,48.7c0,1.9,1.5,3.4,3.4,3.4s3.4-1.5,3.4-3.4s-1.5-3.4-3.4-3.4C20.8,45.3,19.2,46.8,19.2,48.7z"/>
	<path class="st0" d="M19.2,26.1c0,1.9,1.5,3.4,3.4,3.4S26,28,26,26.1s-1.5-3.4-3.4-3.4C20.8,22.7,19.2,24.2,19.2,26.1z"/>
	<circle class="st0" cx="22.6" cy="3.5" r="3.4"/>
	<path class="st0" d="M1,116.5c0,1.9,1.5,3.4,3.4,3.4s3.4-1.5,3.4-3.4s-1.5-3.4-3.4-3.4C2.5,113.2,1,114.7,1,116.5z"/>
	<path class="st0" d="M1,93.9c0,1.9,1.5,3.4,3.4,3.4s3.4-1.5,3.4-3.4s-1.5-3.4-3.4-3.4S1,92.1,1,93.9z"/>
	<path class="st0" d="M1,71.3c0,1.9,1.5,3.4,3.4,3.4s3.4-1.5,3.4-3.4s-1.5-3.4-3.4-3.4S1,69.4,1,71.3z"/>
	<path class="st0" d="M1,48.7c0,1.9,1.5,3.4,3.4,3.4s3.4-1.5,3.4-3.4s-1.5-3.4-3.4-3.4S1,46.8,1,48.7z"/>
	<path class="st0" d="M1,26.1c0,1.9,1.5,3.4,3.4,3.4s3.4-1.5,3.4-3.4s-1.5-3.4-3.4-3.4S1,24.2,1,26.1z"/>
	<path class="st0" d="M1,3.5c0,1.9,1.5,3.4,3.4,3.4s3.4-1.5,3.4-3.4S6.2,0.1,4.4,0.1C2.5,0.1,1,1.6,1,3.5z"/>
</g>
</svg>
