<?xml version="1.0" encoding="utf-8"?>
<!-- Generator: Adobe Illustrator 26.3.1, SVG Export Plug-In . SVG Version: 6.00 Build 0)  -->
<svg version="1.1" id="Layer_1" xmlns="http://www.w3.org/2000/svg" xmlns:xlink="http://www.w3.org/1999/xlink" x="0px" y="0px"
	 viewBox="0 0 100 56" style="enable-background:new 0 0 100 56;" xml:space="preserve">
<style type="text/css">
	.st0{fill:none;stroke:#686CFF;stroke-width:2;stroke-miterlimit:10;}
</style>
<g>
	<g>
		<path class="st0" d="M0,1.9c5.6,0,5.6,6,11.1,6c5.6,0,5.6-6,11.1-6c5.6,0,5.6,6,11.1,6c5.6,0,5.6-6,11.1-6c5.6,0,5.6,6,11.1,6
			c5.6,0,5.6-6,11.1-6c5.6,0,5.6,6,11.1,6c5.6,0,5.6-6,11.1-6c5.6,0,5.6,6,11.1,6"/>
		<path class="st0" d="M0,11.3c5.6,0,5.6,6,11.1,6c5.6,0,5.6-6,11.1-6c5.6,0,5.6,6,11.1,6c5.6,0,5.6-6,11.1-6c5.6,0,5.6,6,11.1,6
			c5.6,0,5.6-6,11.1-6c5.6,0,5.6,6,11.1,6c5.6,0,5.6-6,11.1-6c5.6,0,5.6,6,11.1,6"/>
		<path class="st0" d="M0,20.6c5.6,0,5.6,6,11.1,6c5.6,0,5.6-6,11.1-6c5.6,0,5.6,6,11.1,6c5.6,0,5.6-6,11.1-6c5.6,0,5.6,6,11.1,6
			c5.6,0,5.6-6,11.1-6c5.6,0,5.6,6,11.1,6c5.6,0,5.6-6,11.1-6c5.6,0,5.6,6,11.1,6"/>
	</g>
	<g>
		<path class="st0" d="M0,29.3c5.6,0,5.6,6,11.1,6c5.6,0,5.6-6,11.1-6c5.6,0,5.6,6,11.1,6c5.6,0,5.6-6,11.1-6c5.6,0,5.6,6,11.1,6
			c5.6,0,5.6-6,11.1-6c5.6,0,5.6,6,11.1,6c5.6,0,5.6-6,11.1-6c5.6,0,5.6,6,11.1,6"/>
		<path class="st0" d="M0,38.6c5.6,0,5.6,6,11.1,6c5.6,0,5.6-6,11.1-6c5.6,0,5.6,6,11.1,6c5.6,0,5.6-6,11.1-6c5.6,0,5.6,6,11.1,6
			c5.6,0,5.6-6,11.1-6c5.6,0,5.6,6,11.1,6c5.6,0,5.6-6,11.1-6c5.6,0,5.6,6,11.1,6"/>
		<path class="st0" d="M0,47.9c5.6,0,5.6,6,11.1,6c5.6,0,5.6-6,11.1-6c5.6,0,5.6,6,11.1,6c5.6,0,5.6-6,11.1-6c5.6,0,5.6,6,11.1,6
			c5.6,0,5.6-6,11.1-6c5.6,0,5.6,6,11.1,6c5.6,0,5.6-6,11.1-6c5.6,0,5.6,6,11.1,6"/>
	</g>
</g>
</svg>
